name p14_grf_mean_speed_1.6
datacolumns 13
datarows 40
range 0.0000000000 0.3900000000
endheader
time	grf_x_l_mean	grf_x_l_var	grf_y_l_mean	grf_y_l_var	grf_z_l_mean	grf_z_l_var	grf_x_r_mean	grf_x_r_var	grf_y_r_mean	grf_y_r_var	grf_z_r_mean	grf_z_r_var
0.0000000000	181.8075980043	1.0000000000	722.7668599619	1.0000000000	0.0000000000	0.0000000000	8.6585741607	1.0000000000	11.5181429556	1.0000000000	0.0000000000	0.0000000000
0.0100000000	193.0367413900	1.0000000000	703.0719659257	1.0000000000	0.0000000000	0.0000000000	8.0078897079	1.0000000000	53.5487282950	1.0000000000	0.0000000000	0.0000000000
0.0200000000	200.4558513517	1.0000000000	669.4843340869	1.0000000000	0.0000000000	0.0000000000	1.8873169364	1.0000000000	122.8925435108	1.0000000000	0.0000000000	0.0000000000
0.0300000000	202.8335739594	1.0000000000	621.5281912874	1.0000000000	0.0000000000	0.0000000000	-13.6965301998	1.0000000000	218.0496413376	1.0000000000	0.0000000000	0.0000000000
0.0400000000	198.3608353200	1.0000000000	558.8454962095	1.0000000000	0.0000000000	0.0000000000	-41.0790442383	1.0000000000	328.6928367183	1.0000000000	0.0000000000	0.0000000000
0.0500000000	184.8345616454	1.0000000000	482.7905564472	1.0000000000	0.0000000000	0.0000000000	-74.3763795931	1.0000000000	438.4672514710	1.0000000000	0.0000000000	0.0000000000
0.0600000000	163.5430651475	1.0000000000	397.7878260095	1.0000000000	0.0000000000	0.0000000000	-103.8280292465	1.0000000000	528.6057477241	1.0000000000	0.0000000000	0.0000000000
0.0700000000	136.2078703129	1.0000000000	309.4010142193	1.0000000000	0.0000000000	0.0000000000	-126.1696531309	1.0000000000	589.2548000125	1.0000000000	0.0000000000	0.0000000000
0.0800000000	103.4818381367	1.0000000000	224.2467949253	1.0000000000	0.0000000000	0.0000000000	-141.6178084375	1.0000000000	624.7101158514	1.0000000000	0.0000000000	0.0000000000
0.0900000000	71.1885407282	1.0000000000	149.5570128932	1.0000000000	0.0000000000	0.0000000000	-151.9335541609	1.0000000000	647.9704823944	1.0000000000	0.0000000000	0.0000000000
0.1000000000	43.4685103885	1.0000000000	91.0197763561	1.0000000000	0.0000000000	0.0000000000	-157.6832151067	1.0000000000	670.0248303778	1.0000000000	0.0000000000	0.0000000000
0.1100000000	22.1234600639	1.0000000000	49.3900890149	1.0000000000	0.0000000000	0.0000000000	-160.4725365252	1.0000000000	693.6724421329	1.0000000000	0.0000000000	0.0000000000
0.1200000000	7.7056592034	1.0000000000	21.5840260554	1.0000000000	0.0000000000	0.0000000000	-160.5483646923	1.0000000000	716.5190607786	1.0000000000	0.0000000000	0.0000000000
0.1300000000	0.0566289737	1.0000000000	5.0374481628	1.0000000000	0.0000000000	0.0000000000	-156.5886397217	1.0000000000	736.4886670126	1.0000000000	0.0000000000	0.0000000000
0.1400000000	0.0000000000	1.0000000000	0.0000000000	1.0000000000	0.0000000000	0.0000000000	-149.9157842497	1.0000000000	752.2051197992	1.0000000000	0.0000000000	0.0000000000
0.1500000000	0.0000000000	1.0000000000	0.0000000000	1.0000000000	0.0000000000	0.0000000000	-141.6348821880	1.0000000000	761.7088524052	1.0000000000	0.0000000000	0.0000000000
0.1600000000	0.0000000000	1.0000000000	0.0000000000	1.0000000000	0.0000000000	0.0000000000	-131.4199025236	1.0000000000	762.8831303219	1.0000000000	0.0000000000	0.0000000000
0.1700000000	0.0000000000	1.0000000000	0.0000000000	1.0000000000	0.0000000000	0.0000000000	-118.6532986320	1.0000000000	755.1292999049	1.0000000000	0.0000000000	0.0000000000
0.1800000000	0.0000000000	1.0000000000	0.0000000000	1.0000000000	0.0000000000	0.0000000000	-105.6177512885	1.0000000000	739.1960610323	1.0000000000	0.0000000000	0.0000000000
0.1900000000	0.0000000000	1.0000000000	0.0000000000	1.0000000000	0.0000000000	0.0000000000	-92.4689370776	1.0000000000	715.3408705534	1.0000000000	0.0000000000	0.0000000000
0.2000000000	1.6465238622	1.0000000000	0.6239460286	1.0000000000	0.0000000000	0.0000000000	-79.0070495097	1.0000000000	684.8020481281	1.0000000000	0.0000000000	0.0000000000
0.2100000000	1.8983015008	1.0000000000	1.0768758993	1.0000000000	0.0000000000	0.0000000000	-66.4831576112	1.0000000000	649.8303934623	1.0000000000	0.0000000000	0.0000000000
0.2200000000	1.4735830194	1.0000000000	1.6943087308	1.0000000000	0.0000000000	0.0000000000	-55.5247638500	1.0000000000	611.9439003476	1.0000000000	0.0000000000	0.0000000000
0.2300000000	1.7615497752	1.0000000000	1.9539036167	1.0000000000	0.0000000000	0.0000000000	-45.8375641581	1.0000000000	572.2339227112	1.0000000000	0.0000000000	0.0000000000
0.2400000000	1.9607316561	1.0000000000	1.5380874617	1.0000000000	0.0000000000	0.0000000000	-37.2936763201	1.0000000000	532.7113108567	1.0000000000	0.0000000000	0.0000000000
0.2500000000	1.7393332877	1.0000000000	1.2245619756	1.0000000000	0.0000000000	0.0000000000	-30.7754336411	1.0000000000	496.0591098523	1.0000000000	0.0000000000	0.0000000000
0.2600000000	1.6832593412	1.0000000000	1.2924935788	1.0000000000	0.0000000000	0.0000000000	-25.1269571280	1.0000000000	463.4804635661	1.0000000000	0.0000000000	0.0000000000
0.2700000000	1.9344042058	1.0000000000	1.1903813808	1.0000000000	0.0000000000	0.0000000000	-20.0564741737	1.0000000000	435.0065209115	1.0000000000	0.0000000000	0.0000000000
0.2800000000	1.2615646855	1.0000000000	0.7221477696	1.0000000000	0.0000000000	0.0000000000	-16.0372691231	1.0000000000	411.0861329294	1.0000000000	0.0000000000	0.0000000000
0.2900000000	0.4705045695	1.0000000000	0.3990921517	1.0000000000	0.0000000000	0.0000000000	-12.7981204421	1.0000000000	392.4682393054	1.0000000000	0.0000000000	0.0000000000
0.3000000000	0.5640615719	1.0000000000	0.4221736510	1.0000000000	0.0000000000	0.0000000000	-9.5059261410	1.0000000000	379.4369701806	1.0000000000	0.0000000000	0.0000000000
0.3100000000	0.5699228266	1.0000000000	0.3373421664	1.0000000000	0.0000000000	0.0000000000	-6.0929953290	1.0000000000	371.7187010398	1.0000000000	0.0000000000	0.0000000000
0.3200000000	0.4958982210	1.0000000000	0.1751638300	1.0000000000	0.0000000000	0.0000000000	-2.7221005389	1.0000000000	369.3101195681	1.0000000000	0.0000000000	0.0000000000
0.3300000000	0.9899508362	1.0000000000	0.3302890812	1.0000000000	0.0000000000	0.0000000000	1.4224164878	1.0000000000	372.5382326660	1.0000000000	0.0000000000	0.0000000000
0.3400000000	1.4828264906	1.0000000000	0.6908397829	1.0000000000	0.0000000000	0.0000000000	6.1232812811	1.0000000000	381.3129449005	1.0000000000	0.0000000000	0.0000000000
0.3500000000	0.8308079837	1.0000000000	0.7705024141	1.0000000000	0.0000000000	0.0000000000	11.3701025474	1.0000000000	395.1225368407	1.0000000000	0.0000000000	0.0000000000
0.3600000000	0.1760343513	1.0000000000	0.5339667280	1.0000000000	0.0000000000	0.0000000000	17.5837566956	1.0000000000	413.6738625848	1.0000000000	0.0000000000	0.0000000000
0.3700000000	0.2500167256	1.0000000000	0.3444424995	1.0000000000	0.0000000000	0.0000000000	25.0045098432	1.0000000000	436.9584779533	1.0000000000	0.0000000000	0.0000000000
0.3800000000	0.4371674965	1.0000000000	0.3726126765	1.0000000000	0.0000000000	0.0000000000	33.2525076052	1.0000000000	464.4550454676	1.0000000000	0.0000000000	0.0000000000
0.3900000000	0.6321123494	1.0000000000	0.5088578412	1.0000000000	0.0000000000	0.0000000000	42.7115448112	1.0000000000	495.0326029210	1.0000000000	0.0000000000	0.0000000000
